<svg width="195" height="173" viewBox="0 0 195 173" fill="none" xmlns="http://www.w3.org/2000/svg">
<path d="M137.819 157.186C127.091 162.815 114.879 166 101.923 166C59.1988 166 24.564 131.365 24.564 88.6412C24.564 45.917 59.1988 11.2822 101.923 11.2822C144.647 11.2822 179.282 45.917 179.282 88.6412C179.282 107.662 172.417 125.08 161.029 138.552L168.216 162.125L169.897 167.638L164.417 165.853L137.819 157.186Z" stroke="#FF2A60" stroke-width="6"/>
<path d="M111.564 54.2821C111.564 62.103 118.102 68.6411 125.923 68.6411C133.744 68.6411 140.282 62.103 140.282 54.2821" stroke="#FF2A60" stroke-width="6"/>
<path d="M58.2308 54.2821C58.2308 62.103 64.5354 68.6411 72.0769 68.6411C79.6185 68.6411 85.9231 62.103 85.9231 54.2821" stroke="#FF2A60" stroke-width="6"/>
<path d="M82.846 113C82.846 105.179 89.3841 98.6411 97.205 98.6411C105.026 98.6411 111.564 105.179 111.564 113" stroke="#FF2A60" stroke-width="6"/>
<rect width="111.795" height="24.6154" rx="12.3077" transform="matrix(1 0 0 -1 0 93.6152)" fill="#080002" fill-opacity="0.13"/>
<rect width="111.795" height="24.6154" rx="12.3077" transform="matrix(1 0 0 -1 70 118.615)" fill="#080002" fill-opacity="0.13"/>
<rect width="111.795" height="23.5897" rx="11.7949" transform="matrix(1 0 0 -1 14 141.59)" fill="#080002" fill-opacity="0.13"/>
<path d="M168.612 16.4463C168.324 16.1604 167.935 16 167.529 16C167.123 16 166.734 16.1604 166.447 16.4463C166.161 16.735 166 17.1249 166 17.5313C166 17.9376 166.161 18.3275 166.447 18.6163L170.82 22.9883L166.452 27.3608C166.166 27.6485 166.005 28.0377 166.005 28.4433C166.005 28.8489 166.166 29.238 166.452 29.5258C166.739 29.8116 167.128 29.972 167.534 29.972C167.94 29.972 168.329 29.8116 168.617 29.5258L172.987 25.1538L177.357 29.5213C177.644 29.8071 178.033 29.9675 178.439 29.9675C178.845 29.9675 179.234 29.8071 179.522 29.5213C179.807 29.2335 179.968 28.8444 179.968 28.4388C179.968 28.0332 179.807 27.644 179.522 27.3563L175.153 22.9868L179.526 18.6108C179.812 18.323 179.972 17.9339 179.972 17.5283C179.972 17.1227 179.812 16.7335 179.526 16.4458C178.926 15.8508 177.951 15.8508 177.356 16.4458L172.986 20.8208L168.611 16.4458L168.612 16.4463Z" fill="#FF2A60"/>
<path d="M8.61155 40.4463C8.3238 40.1604 7.93466 40 7.52905 40C7.12345 40 6.73431 40.1604 6.44655 40.4463C6.16064 40.735 6.00024 41.1249 6.00024 41.5313C6.00024 41.9376 6.16064 42.3275 6.44655 42.6163L10.8201 46.9883L6.45155 51.3608C6.1657 51.6485 6.00527 52.0377 6.00527 52.4433C6.00527 52.8489 6.1657 53.238 6.45155 53.5258C6.73931 53.8116 7.12845 53.972 7.53405 53.972C7.93966 53.972 8.3288 53.8116 8.61655 53.5258L12.9866 49.1538L17.3566 53.5213C17.6443 53.8071 18.0334 53.9675 18.4391 53.9675C18.8447 53.9675 19.2338 53.8071 19.5216 53.5213C19.8074 53.2335 19.9678 52.8444 19.9678 52.4388C19.9678 52.0332 19.8074 51.644 19.5216 51.3563L15.1526 46.9868L19.5261 42.6108C19.8119 42.323 19.9723 41.9339 19.9723 41.5283C19.9723 41.1227 19.8119 40.7335 19.5261 40.4458C18.9261 39.8508 17.9511 39.8508 17.3561 40.4458L12.9861 44.8208L8.61105 40.4458L8.61155 40.4463Z" fill="#FF2A60"/>
<rect x="-1.5" y="1.5" width="14" height="14" rx="4.5" transform="matrix(1 0 0 -1 29 17)" stroke="#FF2A60" stroke-width="3"/>
<rect x="-1.5" y="1.5" width="14" height="14" rx="4.5" transform="matrix(1 0 0 -1 181 156)" stroke="#FF2A60" stroke-width="3"/>
<rect x="-1.5" y="1.5" width="14" height="14" rx="4.5" transform="matrix(1 0 0 -1 9 156)" stroke="#FF2A60" stroke-width="3"/>
</svg>
