<svg width="122" height="122" viewBox="0 0 122 122" fill="none" xmlns="http://www.w3.org/2000/svg">
<path d="M48.4504 91.6432L49.0573 92.2501L49.6643 91.6432L104.273 37.0343L104.878 36.4295L104.275 35.8226L95.7199 27.2065L95.1129 26.5953L94.5039 27.2044L49.0565 72.6518L27.8805 51.5348L27.2736 50.9296L26.6675 51.5357L18.1121 60.0911L17.5052 60.698L18.1121 61.3049L48.4504 91.6432ZM1.37445 60.698C1.37445 27.8 28.2946 0.879818 61.1926 0.879818C94.0907 0.879818 121.011 27.8 121.011 60.698C121.011 93.596 94.0907 120.516 61.1926 120.516C28.2946 120.516 1.37445 93.596 1.37445 60.698Z" fill="#DF2554" stroke="#969696" stroke-width="1.71667"/>
</svg>
